<?xml version="1.0" encoding="UTF-8" standalone="no"?>
<svg width="728px" height="164px" viewBox="0 0 728 164" version="1.1" xmlns="http://www.w3.org/2000/svg" xmlns:xlink="http://www.w3.org/1999/xlink">
    <!-- Generator: Sketch 42 (36781) - http://www.bohemiancoding.com/sketch -->
    <title>sgfingvote</title>
    <desc>Created with Sketch.</desc>
    <defs></defs>
    <g id="Page-1" stroke="none" stroke-width="1" fill="none" fill-rule="evenodd">
        <g id="iPad-Pro-Landscape" transform="translate(-98.000000, -94.000000)">
            <g id="sgfingvote" transform="translate(98.000000, 94.000000)">
                <path d="M63.0664317,7.12296599 C56.4353481,3.53247049 44.6928041,0.0800709773 33.5028504,0.0800709773 C9.46517211,0.0800709773 1.45261269,14.8563409 1.45261269,27.0087872 C1.45261269,40.4040973 6.28777786,48.9660481 23.5562249,55.1803673 L38.7524583,60.5661105 C43.725771,62.3613582 45.9361323,66.6423336 45.9361323,71.061405 C45.9361323,77.1376282 41.5154098,81.5566996 33.2265552,81.5566996 C28.3913901,81.5566996 22.865487,80.8662197 20.1025355,79.4852598 L16.2344034,64.294702 L0.2092845,64.294702 L1.17631753,89.8424584 C9.60331969,93.8472418 19.8262403,96.4710655 33.3647028,96.4710655 C57.1260859,96.4710655 66.3819735,81.6947955 66.3819735,69.4042533 C66.3819735,56.837519 61.8231035,47.8612803 43.4494759,41.3707692 L29.4965707,36.3993139 C23.0036346,34.0516822 21.6221588,30.0468988 21.6221588,26.0421153 C21.6221588,20.3801801 25.7665861,15.4087248 33.5028504,15.4087248 C37.3709825,15.4087248 40.9628195,15.9611088 44.2783613,16.9277806 L47.0413129,31.9802425 L63.0664317,31.9802425 L63.0664317,7.12296599 Z M121.641004,0.218166958 C90.2815042,0.218166958 76.0523039,20.3801801 76.0523039,47.9993763 C76.0523039,79.4852598 92.4918655,96.4710655 120.950266,96.4710655 C134.074286,96.4710655 144.711649,94.5377217 155.48716,90.1186504 L155.48716,47.5850883 L116.667691,47.5850883 L116.667691,63.3280301 L137.666123,63.3280301 L137.666123,77.8281081 C132.69281,79.2090679 126.890612,79.3471639 121.779152,79.3471639 C103.405524,79.3471639 96.0837025,66.6423336 96.0837025,47.9993763 C96.0837025,29.4945149 103.405524,17.6182605 120.812119,17.6182605 C126.890612,17.6182605 130.068006,18.0325485 134.350581,18.8611243 L134.350581,34.4659702 L151.342733,34.4659702 L152.724209,5.74200618 C144.435354,3.25627853 134.074286,0.218166958 121.641004,0.218166958 Z M167.367852,94.9520097 L212.680257,94.9520097 L212.680257,79.6233558 L195.688105,79.6233558 L195.688105,59.5994386 L222.76503,59.5994386 L222.76503,43.8564968 L195.688105,43.8564968 L195.688105,16.9277806 L218.482455,16.9277806 L218.482455,32.1183385 L236.027197,32.1183385 L236.027197,1.59912676 L167.367852,1.59912676 L167.367852,16.9277806 L176.623739,16.9277806 L176.623739,79.6233558 L167.367852,79.6233558 L167.367852,94.9520097 Z M439.486462,16.9277806 L450.261973,16.9277806 L432.855378,76.7233402 L415.034341,16.9277806 L426.362442,16.9277806 L426.362442,1.59912676 L386.02335,1.59912676 L386.02335,16.9277806 L395.002942,16.9277806 L419.869506,94.9520097 L445.426808,94.9520097 L470.569666,16.9277806 L479.963702,16.9277806 L479.963702,1.59912676 L439.486462,1.59912676 L439.486462,16.9277806 Z M504.415823,48.4136642 C504.415823,66.7804296 508.145807,79.7614518 523.894631,79.7614518 C539.505307,79.7614518 543.235292,66.7804296 543.235292,48.4136642 C543.235292,29.7707068 539.229012,16.9277806 524.032778,16.9277806 C508.836545,16.9277806 504.415823,29.7707068 504.415823,48.4136642 Z M563.81928,48.4136642 C563.81928,75.6185724 552.905622,96.4710655 523.618336,96.4710655 C494.33105,96.4710655 483.831834,75.6185724 483.831834,48.4136642 C483.831834,21.07066 494.054754,0.0800709773 523.894631,0.0800709773 C553.458212,0.0800709773 563.81928,21.07066 563.81928,48.4136642 Z M571.555545,1.59912676 L571.555545,31.8421465 L587.304368,31.8421465 L587.304368,16.9277806 L599.875798,16.9277806 L599.875798,79.6233558 L587.304368,79.6233558 L587.304368,94.9520097 L630.959003,94.9520097 L630.959003,79.6233558 L618.663868,79.6233558 L618.663868,16.9277806 L632.064183,16.9277806 L632.064183,31.8421465 L647.813007,31.8421465 L647.813007,1.59912676 L571.555545,1.59912676 Z M709.564973,65.6756618 L709.564973,79.6233558 L684.007672,79.6233558 L684.007672,56.0089431 L710.670154,56.0089431 L710.670154,40.5421933 L684.007672,40.5421933 L684.007672,16.9277806 L709.564973,16.9277806 L709.564973,30.8754747 L727.109716,30.8754747 L727.109716,1.59912676 L655.687419,1.59912676 L655.687419,16.9277806 L665.081454,16.9277806 L665.081454,79.6233558 L655.687419,79.6233558 L655.687419,94.9520097 L727.524158,94.9520097 L727.524158,65.6756618 L709.564973,65.6756618 Z" id="SGF-VOTE" fill="#FFFFFF"></path>
                <path d="M326.235897,87.3840902 C324.134656,90.2481546 322.190148,92.5109978 320.333337,94.2186252 C314.860876,99.5004073 310.520648,100.066313 306.935243,100.066313 C303.349837,100.066313 298.443493,99.3117722 295.801615,94.9731655 C291.272682,87.4277625 297.499965,75.9210229 304.482071,62.7165677 C306.935243,58.377961 313.539937,46.4939512 313.351232,42.1553445 C312.973821,41.9667094 312.59641,41.9667094 311.841587,41.9667094 C308.444887,42.1553445 294.669382,51.3984632 284.290577,69.6960655 L281.2282,74.4265725 C276.96949,81.8550536 273.529778,87.4114275 270.229004,91.4172246 L269.857249,91.9914819 C269.777223,92.1400468 269.303678,92.6061069 268.706609,93.1639818 C264.181886,98.0484212 259.721862,100.066313 253.531571,100.066313 C245.794644,100.066313 241.077005,95.5390707 241.077005,88.1823028 C241.077005,80.0709946 242.586649,79.3164543 268.061899,34.2326714 C269.571543,31.7804154 272.590832,30.83724 275.23271,32.3463206 C277.685882,33.6667661 278.440704,36.8735624 277.119766,39.3258184 C252.399338,83.0891558 251.45581,83.4664259 251.45581,88.1823028 C251.45581,88.9368431 252.020632,90.2238614 253.916813,90.2238614 C255.94722,90.2238614 261.268499,88.748208 274.855299,64.6029184 C274.98471,64.3765335 275.125215,64.1640103 275.275624,63.9654676 C283.695949,49.1847176 292.728772,33.3831816 293.537149,31.9690505 C296.179026,27.4418087 302.972426,29.1395243 303.349837,34.2326714 C307.312654,32.1576855 310.143237,31.5917803 311.841587,31.5917803 C315.238287,31.5917803 319.767221,32.5349557 322.220393,36.4962923 C328.447676,46.8712214 312.785115,66.3006341 306.369126,82.3346155 C304.482071,87.0504924 304.670776,88.9368431 304.670776,89.5027483 C305.048187,89.5027483 305.614304,89.6913834 306.935243,89.6913834 C309.577121,89.6913834 314.106054,89.6913834 328.447676,64.6029184 C328.483933,64.5304315 328.521612,64.4593658 328.560657,64.3897251 C329.634979,61.4924713 330.980683,58.5274456 332.599198,55.5484348 C340.524831,40.6462639 349.393992,29.5167945 365.811376,29.5167945 C370.340309,29.5167945 374.680537,31.0258751 377.888531,34.4213064 C379.398175,31.5917803 382.60617,31.0258751 384.870636,32.3463206 C387.323809,33.6667661 388.078631,36.8735624 386.757692,39.3258184 C373.170892,63.2824729 366.754903,74.6005774 364.113026,79.5050894 C363.169498,81.01417 361.659853,83.655061 359.206681,87.9936677 C368.641959,82.3346155 376.945003,75.3551177 382.983581,64.6029184 C384.30452,62.1506625 387.512514,61.2074871 389.965686,62.7165677 C392.418859,64.0370132 393.173681,67.0551744 391.852742,69.5074304 C381.473936,88.1823028 365.62267,96.6708812 349.960109,104.404919 C349.771404,104.593554 325.617093,147.036446 325.428387,147.225081 C305.80301,178.915774 281.459993,159.674996 293.537149,137.604692 C305.614304,115.157119 323.730037,105.914 340.524831,97.6140566 C332.867556,98.0393019 328.087282,93.9781008 326.235895,87.3840826 Z M278.063293,27.0645385 C275.798827,25.744093 274.477888,22.7259318 276.176238,19.7077706 C277.497177,17.2555146 280.705171,16.3123392 283.158343,17.8214198 C285.800221,19.1418654 286.555043,22.3486616 285.234104,24.8009176 C283.535754,27.8190788 280.32776,28.384984 278.063293,27.0645385 Z M338.826481,87.4277625 C345.24247,87.4277625 349.205287,83.8436961 353.168103,77.8073737 C362.414676,61.5847572 358.640565,68.564255 371.661248,45.1735057 C371.095131,41.0235341 369.208075,39.7030885 365.811376,39.7030885 C355.998687,39.7030885 349.771404,44.9848706 341.468359,60.4529468 C338.44907,65.923364 336.562015,71.3937811 335.807193,76.4869282 C335.241076,80.6368998 335.618487,84.2209662 336.75072,86.2959521 C337.316837,87.0504924 337.882954,87.4277625 338.826481,87.4277625 Z M302.217604,153.450039 C304.293365,154.770484 310.331943,152.318228 316.747932,141.943299 L333.35402,112.704863 C319.767221,120.250266 309.954532,128.738844 302.40631,142.509204 C299.387021,147.979622 300.330549,152.506863 302.217604,153.450039 Z" id="ing" fill="#1C3355"></path>
                <path d="M255.030678,24.9981511 C254.140472,24.9981511 253.294789,24.8312294 252.493604,24.4973809 C251.692418,24.1635325 250.980264,23.6627673 250.35712,22.9950704 C249.733976,22.3273735 249.24437,21.4927649 248.888288,20.4912195 C248.532205,19.4896742 248.354167,18.2989659 248.354167,16.919059 C248.354167,15.6726914 248.721371,14.1926521 249.455791,12.4788968 C250.190211,10.7651414 251.091531,9.11818038 252.159778,7.53796438 C253.228025,5.95774837 254.351894,4.6223746 255.531417,3.53180299 C256.71094,2.44123138 257.723534,1.89595376 258.569229,1.89595376 C259.147863,1.89595376 259.681979,2.04061925 260.171592,2.32995457 C260.661205,2.6192899 261.084047,2.97538957 261.440129,3.39826428 C261.796212,3.82113898 262.074397,4.2885198 262.274693,4.80042076 C262.47499,5.31232172 262.575136,5.76857443 262.575136,6.16919257 C262.575136,6.52529758 262.486117,6.73673177 262.308076,6.80350146 C262.130035,6.87027115 261.885232,6.97042418 261.57366,7.10396356 C261.084046,7.23750294 260.38302,7.81616491 259.470558,8.83996683 C258.558097,9.86376874 257.634522,11.0210927 256.699806,12.3119734 C258.124136,12.6680784 259.325896,13.402534 260.305122,14.5153621 C261.284349,15.6281903 261.773955,16.9413078 261.773955,18.4547542 C261.773955,19.3895298 261.584789,20.2463947 261.206451,21.0253744 C260.828114,21.8043541 260.32738,22.4942972 259.704236,23.0952244 C259.081092,23.6961516 258.368938,24.1635325 257.567753,24.4973809 C256.766567,24.8312294 255.920884,24.9981511 255.030678,24.9981511 Z" id="‘" fill="#203253" transform="translate(255.464651, 13.447052) rotate(172.000000) translate(-255.464651, -13.447052) "></path>
            </g>
        </g>
    </g>
</svg>